<svg width="100" height="100" viewBox="0 0 100 100" fill="none" xmlns="http://www.w3.org/2000/svg">
<mask id="mask0_19_93" style="mask-type:alpha" maskUnits="userSpaceOnUse" x="0" y="0" width="100" height="100">
<path d="M99.9767 0.10614H0.375061V99.7077H99.9767V0.10614Z" fill="white"/>
</mask>
<g mask="url(#mask0_19_93)">
<path d="M68.5522 49.7072C68.5522 40.2415 66.9669 30.9734 63.9837 22.9974C61.0008 15.0213 56.7442 8.67029 51.7171 4.69423C46.6896 0.718166 41.1016 -0.71691 35.6124 0.558449C30.1233 1.83381 24.9623 5.76635 20.7388 11.8917C16.5154 18.0171 13.4059 26.0795 11.7776 35.127C10.1492 44.1746 10.0699 53.8291 11.5491 62.9514C13.0282 72.0734 16.0041 80.2817 20.1252 86.6072C24.2464 92.9327 29.3408 97.1108 34.8069 98.6491L34.9479 97.1853C29.6453 95.6933 24.7033 91.6399 20.7054 85.5036C16.7074 79.3674 13.8206 71.4044 12.3856 62.555C10.9507 53.706 11.0276 44.3399 12.6073 35.563C14.187 26.7861 17.2035 18.9648 21.3006 13.0226C25.3977 7.08041 30.4044 3.26546 35.7294 2.02823C41.0546 0.791014 46.4753 2.18317 51.3522 6.04033C56.2295 9.8975 60.3586 16.0586 63.2522 23.7961C66.1462 31.5337 67.6841 40.5244 67.6841 49.7072H68.5522Z" fill="white"/>
<path d="M46.7414 33.9735C56.0928 30.8493 65.3347 28.3464 73.4857 26.7305C81.637 25.1146 88.3936 24.4458 93.0386 24.7951C97.6841 25.1444 100.044 26.4988 99.8697 28.7146C99.6952 30.9304 96.992 33.9249 92.047 37.3805C87.102 40.8359 80.0996 44.6235 71.7829 48.3415C63.4661 52.0594 54.145 55.569 44.8088 58.498C35.4726 61.4267 26.4694 63.6654 18.7543 64.9765C11.0393 66.2877 4.90031 66.6223 0.988617 65.9451L4.31553 64.5C7.95075 65.1291 13.6559 64.818 20.8256 63.5996C27.9953 62.3813 36.3622 60.3004 45.0386 57.5789C53.7147 54.857 62.3773 51.5956 70.106 48.1407C77.8351 44.6853 84.3426 41.1654 88.9378 37.9541C93.5335 34.7427 96.0458 31.9599 96.208 29.9007C96.3701 27.8415 94.1765 26.5828 89.8598 26.2582C85.5426 25.9335 79.2637 26.555 71.6888 28.0568C64.1135 29.5585 55.5251 31.8844 46.8347 34.7878L46.7414 33.9735Z" fill="white"/>
<path d="M80.5151 86.463C77.6657 86.2033 73.8924 84.608 69.5964 81.8471C65.3 79.0861 60.641 75.2622 56.1135 70.7813C51.5861 66.3005 47.3586 61.33 43.8801 56.3965C40.402 51.463 37.8019 46.7511 36.3565 42.7606C34.9111 38.7699 34.674 35.6496 35.6704 33.7305C36.6668 31.8114 38.8596 31.1652 42.0159 31.8604C45.1725 32.5557 49.1749 34.5664 53.5984 37.6793C58.0219 40.7921 62.702 44.8909 67.1418 49.5411L66.6745 50.2128C62.5486 45.8913 58.1992 42.0821 54.0884 39.1894C49.9773 36.2965 46.2578 34.4279 43.3247 33.7818C40.3912 33.1357 38.3535 33.7362 37.4276 35.5197C36.5016 37.3031 36.7219 40.2029 38.0652 43.9116C39.4084 47.62 41.8247 51.9989 45.057 56.5837C48.2896 61.1682 52.2183 65.7877 56.4259 69.9519C60.6335 74.116 64.9629 77.6694 68.9558 80.2355C72.9482 82.8013 76.4546 84.2837 79.1028 84.5252L80.5151 86.463Z" fill="white"/>
</g>
</svg>
