<svg width="312" height="40" viewBox="0 0 312 40" fill="none" xmlns="http://www.w3.org/2000/svg">
<g id="AUGENE PAK">
<path id="Vector" d="M9.0511 36H1.14203L13.1932 1.0909H22.7045L34.7386 36H26.8295L18.0852 9.0682H17.8125L9.0511 36ZM8.55678 22.2784H27.2386V28.0398H8.55678V22.2784ZM60.5028 1.0909H67.8836V23.7614C67.8836 26.3068 67.2756 28.5341 66.0596 30.4432C64.8552 32.3523 63.1676 33.8409 60.9972 34.9091C58.8268 35.9659 56.2984 36.4943 53.412 36.4943C50.5144 36.4943 47.98 35.9659 45.8096 34.9091C43.6392 33.8409 41.9516 32.3523 40.7472 30.4432C39.5426 28.5341 38.9403 26.3068 38.9403 23.7614V1.0909H46.3212V23.1307C46.3212 24.4602 46.6108 25.642 47.1904 26.6761C47.7812 27.7102 48.6108 28.5227 49.6788 29.1136C50.7472 29.7046 51.9916 30 53.412 30C54.8436 30 56.088 29.7046 57.1448 29.1136C58.2132 28.5227 59.0368 27.7102 59.6164 26.6761C60.2072 25.642 60.5028 24.4602 60.5028 23.1307V1.0909ZM97.1036 12.375C96.8652 11.5454 96.53 10.8125 96.098 10.1761C95.666 9.5284 95.1376 8.98296 94.5128 8.53976C93.8992 8.08524 93.1948 7.73864 92.3992 7.5C91.6152 7.26136 90.7456 7.14204 89.7912 7.14204C88.0072 7.14204 86.4388 7.58524 85.0868 8.4716C83.7456 9.35796 82.7004 10.6477 81.9504 12.3409C81.2004 14.0227 80.8252 16.0796 80.8252 18.5114C80.8252 20.9432 81.1948 23.0114 81.9332 24.7159C82.672 26.4204 83.7172 27.7216 85.0696 28.6193C86.422 29.5057 88.0184 29.9489 89.8592 29.9489C91.53 29.9489 92.956 29.6534 94.1376 29.0625C95.3308 28.4602 96.24 27.6136 96.8652 26.5227C97.5016 25.4318 97.8196 24.142 97.8196 22.6534L99.3196 22.875H90.3196V17.3182H104.928V21.7159C104.928 24.7841 104.28 27.4204 102.984 29.625C101.689 31.8182 99.9048 33.5114 97.632 34.7046C95.3592 35.8864 92.7572 36.4773 89.8252 36.4773C86.5524 36.4773 83.6776 35.7557 81.2004 34.3125C78.7232 32.858 76.7912 30.7954 75.4048 28.125C74.03 25.4432 73.3424 22.2614 73.3424 18.5796C73.3424 15.75 73.7516 13.2273 74.5696 11.0114C75.3992 8.78408 76.5584 6.89772 78.0468 5.35228C79.5356 3.80681 81.2684 2.63068 83.2456 1.82386C85.2232 1.01704 87.3652 0.613632 89.672 0.613632C91.6492 0.613632 93.49 0.903404 95.1948 1.48295C96.8992 2.05113 98.4104 2.85795 99.7288 3.9034C101.058 4.94888 102.144 6.1932 102.984 7.63636C103.825 9.0682 104.365 10.6477 104.604 12.375H97.1036ZM110.472 36V1.0909H133.994V7.17612H117.852V15.4943H132.784V21.5796H117.852V29.9148H134.062V36H110.472ZM169.061 1.0909V36H162.686L147.498 14.0284H147.243V36H139.862V1.0909H146.34L161.408 23.0454H161.714V1.0909H169.061ZM175.159 36V1.0909H198.682V7.17612H182.54V15.4943H197.472V21.5796H182.54V29.9148H198.75V36H175.159ZM215.659 36V1.0909H229.432C232.08 1.0909 234.335 1.59659 236.199 2.60795C238.062 3.60795 239.483 5 240.46 6.78408C241.449 8.5568 241.943 10.6023 241.943 12.9204C241.943 15.2386 241.443 17.2841 240.443 19.0568C239.443 20.8296 237.994 22.2102 236.096 23.1989C234.21 24.1875 231.926 24.6818 229.244 24.6818H220.466V18.767H228.051C229.472 18.767 230.642 18.5227 231.562 18.0341C232.494 17.5341 233.188 16.8466 233.642 15.9716C234.108 15.0852 234.341 14.0682 234.341 12.9204C234.341 11.7614 234.108 10.75 233.642 9.88636C233.188 9.01136 232.494 8.33524 231.562 7.85796C230.631 7.36932 229.449 7.125 228.017 7.125H223.04V36H215.659ZM248.723 36H240.814L252.865 1.0909H262.376L274.41 36H266.502L257.757 9.0682H257.484L248.723 36ZM248.229 22.2784H266.91V28.0398H248.229V22.2784ZM278.612 36V1.0909H285.993V16.483H286.453L299.016 1.0909H307.862L294.908 16.7216L308.016 36H299.186L289.624 21.6477L285.993 26.0796V36H278.612Z" fill="black"/>
</g>
</svg>
