<svg width="78" height="10" viewBox="0 0 78 10" fill="none" xmlns="http://www.w3.org/2000/svg">
<path d="M2.26278 9H0.285511L3.2983 0.272727H5.67614L8.68466 9H6.70739L4.52131 2.26705H4.45312L2.26278 9ZM2.1392 5.5696H6.80966V7.00994H2.1392V5.5696ZM15.1257 0.272727H16.9709V5.94034C16.9709 6.5767 16.8189 7.13352 16.5149 7.6108C16.2138 8.08807 15.7919 8.46023 15.2493 8.72727C14.7067 8.99148 14.0746 9.12358 13.353 9.12358C12.6286 9.12358 11.995 8.99148 11.4524 8.72727C10.9098 8.46023 10.4879 8.08807 10.1868 7.6108C9.88565 7.13352 9.73509 6.5767 9.73509 5.94034V0.272727H11.5803V5.78267C11.5803 6.11506 11.6527 6.41051 11.7976 6.66903C11.9453 6.92756 12.1527 7.13068 12.4197 7.27841C12.6868 7.42614 12.9979 7.5 13.353 7.5C13.7109 7.5 14.022 7.42614 14.2862 7.27841C14.5533 7.13068 14.7592 6.92756 14.9041 6.66903C15.0518 6.41051 15.1257 6.11506 15.1257 5.78267V0.272727ZM24.2759 3.09375C24.2163 2.88636 24.1325 2.70312 24.0245 2.54403C23.9165 2.3821 23.7844 2.24574 23.6282 2.13494C23.4748 2.02131 23.2987 1.93466 23.0998 1.875C22.9038 1.81534 22.6864 1.78551 22.4478 1.78551C22.0018 1.78551 21.6097 1.89631 21.2717 2.1179C20.9364 2.33949 20.6751 2.66193 20.4876 3.08523C20.3001 3.50568 20.2063 4.01989 20.2063 4.62784C20.2063 5.2358 20.2987 5.75284 20.4833 6.17898C20.668 6.60511 20.9293 6.9304 21.2674 7.15483C21.6055 7.37642 22.0046 7.48722 22.4648 7.48722C22.8825 7.48722 23.239 7.41335 23.5344 7.26562C23.8327 7.11506 24.06 6.90341 24.2163 6.63068C24.3754 6.35795 24.4549 6.03551 24.4549 5.66335L24.8299 5.71875H22.5799V4.32955H26.2319V5.42898C26.2319 6.19602 26.07 6.85511 25.7461 7.40625C25.4222 7.95455 24.9762 8.37784 24.408 8.67614C23.8398 8.97159 23.1893 9.11932 22.4563 9.11932C21.6381 9.11932 20.9194 8.93892 20.3001 8.57812C19.6808 8.21449 19.1978 7.69886 18.8512 7.03125C18.5075 6.3608 18.3356 5.56534 18.3356 4.64489C18.3356 3.9375 18.4379 3.30682 18.6424 2.75284C18.8498 2.19602 19.1396 1.72443 19.5117 1.33807C19.8839 0.951704 20.3171 0.65767 20.8114 0.455966C21.3058 0.254261 21.8413 0.153409 22.418 0.153409C22.9123 0.153409 23.3725 0.225852 23.7987 0.370739C24.2248 0.512784 24.6026 0.714489 24.9322 0.975852C25.2646 1.23722 25.5359 1.5483 25.7461 1.90909C25.9563 2.26705 26.0913 2.66193 26.1509 3.09375H24.2759ZM27.6179 9V0.272727H33.4986V1.79403H29.4631V3.87358H33.196V5.39489H29.4631V7.47869H33.5156V9H27.6179ZM42.2653 0.272727V9H40.6715L36.8746 3.5071H36.8107V9H34.9656V0.272727H36.5849L40.3519 5.76136H40.4286V0.272727H42.2653ZM43.7898 9V0.272727H49.6705V1.79403H45.6349V3.87358H49.3679V5.39489H45.6349V7.47869H49.6875V9H43.7898ZM53.9148 9V0.272727H57.358C58.0199 0.272727 58.5838 0.399148 59.0497 0.651989C59.5156 0.901989 59.8707 1.25 60.1151 1.69602C60.3622 2.1392 60.4858 2.65057 60.4858 3.23011C60.4858 3.80966 60.3608 4.32102 60.1108 4.7642C59.8608 5.20739 59.4986 5.55256 59.0241 5.79972C58.5526 6.04687 57.9815 6.17045 57.3111 6.17045H55.1165V4.69176H57.0128C57.3679 4.69176 57.6605 4.63068 57.8906 4.50852C58.1236 4.38352 58.2969 4.21165 58.4105 3.9929C58.527 3.77131 58.5852 3.51705 58.5852 3.23011C58.5852 2.94034 58.527 2.6875 58.4105 2.47159C58.2969 2.25284 58.1236 2.08381 57.8906 1.96449C57.6577 1.84233 57.3622 1.78125 57.0043 1.78125H55.7599V9H53.9148ZM62.1808 9H60.2035L63.2163 0.272727H65.5941L68.6026 9H66.6254L64.4393 2.26705H64.3711L62.1808 9ZM62.0572 5.5696H66.7276V7.00994H62.0572V5.5696ZM69.6531 9V0.272727H71.4982V4.12074H71.6133L74.7539 0.272727H76.9656L73.7269 4.1804L77.0039 9H74.7965L72.4059 5.41193L71.4982 6.51989V9H69.6531Z" fill="black"/>
<style>
    path {
        fill: black;
    }
    @media (prefers-color-scheme: dark) {
        path { fill: white; }
    }
</style>
</svg>
